<svg width="48" height="48" viewBox="0 0 48 48" fill="none" xmlns="http://www.w3.org/2000/svg">
<rect width="48" height="48" rx="24" fill="#4F4CD4"/>
<path fill-rule="evenodd" clip-rule="evenodd" d="M24.4296 17.3017C23.662 16.8083 23.0278 16.4006 22.5024 16.1271C21.9754 15.8528 21.4033 15.627 20.7863 15.6711C19.9183 15.733 19.12 16.1689 18.5985 16.8655C18.2277 17.3607 18.1083 17.964 18.0541 18.5557C18 19.1455 18 19.8995 18 20.8119V27.1882C18 28.1007 18 28.8547 18.0541 29.4445C18.1083 30.0362 18.2277 30.6395 18.5985 31.1347C19.12 31.8313 19.9183 32.2671 20.7863 32.3291C21.4033 32.3732 21.9754 32.1474 22.5024 31.8731C22.5681 31.8389 22.6355 31.8026 22.7046 31.7643C23.1884 31.4964 23.7579 31.1302 24.4295 30.6985L29.3934 27.5074C29.4348 27.4808 29.4758 27.4545 29.5164 27.4284C30.125 27.0369 30.6368 26.7046 31.0256 26.4014C31.0785 26.3601 31.131 26.318 31.1828 26.275C31.5452 25.9734 31.8724 25.6235 32.0649 25.1678C32.1044 25.0744 32.1388 24.9796 32.1684 24.8837C32.3754 24.2122 32.3409 23.4856 32.0649 22.8324C31.8448 22.3116 31.4489 21.9289 31.0256 21.5988C30.6109 21.2754 30.0562 20.9188 29.3934 20.4927L24.4296 17.3017ZM20.9288 17.666C20.9758 17.6626 21.1372 17.6712 21.5791 17.9012C22.0132 18.1272 22.57 18.4839 23.3897 19.0108L28.272 22.1495C28.3166 22.1782 28.3603 22.2062 28.403 22.2337C29.0441 22.6462 29.4825 22.9317 29.7957 23.1759C29.8165 23.1922 29.8363 23.2079 29.8552 23.2231C30.1382 23.4515 30.2033 23.5652 30.2226 23.6109C30.2358 23.642 30.2473 23.6736 30.2571 23.7056C30.3261 23.9294 30.3146 24.1716 30.2226 24.3893C30.202 24.438 30.1293 24.5641 29.7957 24.8243C29.4617 25.0848 28.9851 25.3923 28.272 25.8507L23.3897 28.9894C22.57 29.5163 22.0132 29.873 21.5791 30.099C21.5514 30.1134 21.5249 30.1269 21.4995 30.1396C21.1174 30.33 20.9729 30.3374 20.9288 30.3342C20.9107 30.3329 20.8927 30.3312 20.8748 30.3289C20.6065 30.2951 20.3625 30.1538 20.1995 29.9361C20.1712 29.8983 20.0912 29.758 20.0457 29.2619C20.001 28.7745 20 28.1132 20 27.1388V20.8614C20 19.887 20.001 19.2257 20.0457 18.7383C20.0912 18.2422 20.1712 18.1019 20.1995 18.0641C20.3733 17.8319 20.6394 17.6866 20.9288 17.666Z" fill="white"/>
</svg>
