<svg width="48" height="48" viewBox="0 0 48 48" fill="none" xmlns="http://www.w3.org/2000/svg">
<path fill-rule="evenodd" clip-rule="evenodd" d="M5.71429 44.5714L5.71429 1.14286C5.71429 0.511673 6.22597 0 6.85715 0H25.1429C25.774 0 26.2857 0.511675 26.2857 1.14286L26.2857 44.5714L28.5714 44.5714C28.5714 44.5714 28.5714 44.5714 28.5714 44.5714V40H37.7143V36.5714H28.5714V33.1429L37.7143 33.1429V29.7143L28.5714 29.7143V26.2857L37.7143 26.2857V22.8571L28.5714 22.8571V19.4286H37.7143V16L28.5714 16V8.53779L41.4653 12.3301C41.9517 12.4732 42.2857 12.9196 42.2857 13.4265L42.2857 44.5714C42.2857 44.5714 42.2857 44.5714 42.2857 44.5714L46.2857 44.5714C47.2325 44.5714 48 45.3389 48 46.2857C48 47.2325 47.2325 48 46.2857 48L1.71429 48C0.767513 48 0 47.2325 0 46.2857C0 45.3389 0.767513 44.5714 1.71429 44.5714L5.71429 44.5714ZM10.2857 8L21.7143 8V4.57143L10.2857 4.57143V8ZM21.7143 16L10.2857 16V12.5714L21.7143 12.5714V16ZM10.2857 24H21.7143V20.5714H10.2857V24ZM21.7143 32H10.2857V28.5714H21.7143V32ZM10.2857 40H21.7143V36.5714H10.2857V40Z" fill="white"/>
</svg>
