<svg width="45" height="48" viewBox="0 0 45 48" fill="none" xmlns="http://www.w3.org/2000/svg">
<path fill-rule="evenodd" clip-rule="evenodd" d="M3.55263 0C1.59057 0 0 1.61177 0 3.6V42C0 43.9882 1.59057 45.6 3.55263 45.6H22.5658C21.1045 43.9455 20.0151 41.9465 19.4309 39.7382C18.8878 40.3877 18.077 40.8 17.1711 40.8C15.536 40.8 14.2105 39.4569 14.2105 37.8C14.2105 36.1431 15.536 34.8 17.1711 34.8C17.8428 34.8 18.4623 35.0267 18.9591 35.4088C19.2651 27.73 25.5051 21.6 33.1579 21.6C33.5567 21.6 33.9516 21.6166 34.3421 21.6493V3.6C34.3421 1.61177 32.7515 0 30.7895 0H3.55263ZM4.73684 7.2C4.73684 5.87452 5.79722 4.8 7.10526 4.8H27.2368C28.5449 4.8 29.6053 5.87452 29.6053 7.2V9.6C29.6053 10.9255 28.5449 12 27.2368 12H7.10526C5.79722 12 4.73684 10.9255 4.73684 9.6V7.2ZM4.73684 18.6C4.73684 16.9431 6.06231 15.6 7.69737 15.6C9.33242 15.6 10.6579 16.9431 10.6579 18.6C10.6579 20.2569 9.33242 21.6 7.69737 21.6C6.06231 21.6 4.73684 20.2569 4.73684 18.6ZM4.73684 37.8C4.73684 36.1431 6.06231 34.8 7.69737 34.8C9.33242 34.8 10.6579 36.1431 10.6579 37.8C10.6579 39.4569 9.33242 40.8 7.69737 40.8C6.06231 40.8 4.73684 39.4569 4.73684 37.8ZM4.73684 28.2C4.73684 26.5431 6.06231 25.2 7.69737 25.2C9.33242 25.2 10.6579 26.5431 10.6579 28.2C10.6579 29.8569 9.33242 31.2 7.69737 31.2C6.06231 31.2 4.73684 29.8569 4.73684 28.2ZM14.2105 28.2C14.2105 26.5431 15.536 25.2 17.1711 25.2C18.8061 25.2 20.1316 26.5431 20.1316 28.2C20.1316 29.8569 18.8061 31.2 17.1711 31.2C15.536 31.2 14.2105 29.8569 14.2105 28.2ZM14.2105 18.6C14.2105 16.9431 15.536 15.6 17.1711 15.6C18.8061 15.6 20.1316 16.9431 20.1316 18.6C20.1316 20.2569 18.8061 21.6 17.1711 21.6C15.536 21.6 14.2105 20.2569 14.2105 18.6ZM23.6842 18.6C23.6842 16.9431 25.0097 15.6 26.6447 15.6C28.2798 15.6 29.6053 16.9431 29.6053 18.6C29.6053 20.2569 28.2798 21.6 26.6447 21.6C25.0097 21.6 23.6842 20.2569 23.6842 18.6Z" fill="white"/>
<path d="M27.2368 32.4C27.2368 31.7373 27.767 31.2 28.4211 31.2C29.0751 31.2 29.6053 31.7373 29.6053 32.4C29.6053 33.0627 29.0751 33.6 28.4211 33.6C27.767 33.6 27.2368 33.0627 27.2368 32.4Z" fill="white"/>
<path d="M36.7105 39.6C36.7105 38.9373 37.2407 38.4 37.8947 38.4C38.5488 38.4 39.0789 38.9373 39.0789 39.6C39.0789 40.2627 38.5488 40.8 37.8947 40.8C37.2407 40.8 36.7105 40.2627 36.7105 39.6Z" fill="white"/>
<path fill-rule="evenodd" clip-rule="evenodd" d="M45 36C45 42.6274 39.6981 48 33.1579 48C26.6177 48 21.3158 42.6274 21.3158 36C21.3158 29.3726 26.6177 24 33.1579 24C39.6981 24 45 29.3726 45 36ZM28.4211 36C30.3831 36 31.9737 34.3882 31.9737 32.4C31.9737 30.4118 30.3831 28.8 28.4211 28.8C26.459 28.8 24.8684 30.4118 24.8684 32.4C24.8684 34.3882 26.459 36 28.4211 36ZM37.6453 31.9367C38.0469 31.4136 37.9539 30.6597 37.4376 30.2528C36.9214 29.8459 36.1773 29.9401 35.7758 30.4633L27.4863 41.2633C27.0848 41.7864 27.1778 42.5403 27.6941 42.9472C28.2103 43.3541 28.9543 43.2599 29.3559 42.7367L37.6453 31.9367ZM37.8947 43.2C39.8568 43.2 41.4474 41.5882 41.4474 39.6C41.4474 37.6118 39.8568 36 37.8947 36C35.9327 36 34.3421 37.6118 34.3421 39.6C34.3421 41.5882 35.9327 43.2 37.8947 43.2Z" fill="white"/>
</svg>
