<svg width="51" height="48" viewBox="0 0 51 48" fill="none" xmlns="http://www.w3.org/2000/svg">
<path d="M19.4816 1.99308C22.8302 -0.664357 27.5554 -0.664363 30.9039 1.99308L35.0241 5.26291V2.29222C35.0241 1.60996 35.5743 1.05687 36.2531 1.05687H39.9398C40.6185 1.05687 41.1687 1.60996 41.1687 2.29222V10.1393L49.6843 16.8973C50.4834 17.5315 50.6198 18.6967 49.9889 19.4999C49.3581 20.3032 48.1989 20.4403 47.3999 19.8061L28.6195 4.90188C26.6103 3.30742 23.7752 3.30742 21.7661 4.90189L2.98568 19.8061C2.18662 20.4403 1.02745 20.3032 0.396616 19.4999C-0.234222 18.6967 -0.0978498 17.5315 0.701211 16.8973L19.4816 1.99308Z" fill="#4F4CD4"/>
<path fill-rule="evenodd" clip-rule="evenodd" d="M5.53025 39.3526V22.63C5.53025 21.4892 6.05295 20.4119 6.94727 19.7096L22.9231 7.16308C24.2569 6.11563 26.1288 6.11563 27.4626 7.16308L43.4384 19.7096C44.2067 20.3129 44.7008 21.193 44.8247 22.1524C42.9621 21.2983 40.8918 20.8224 38.7109 20.8224C35.6958 20.8224 32.892 21.732 30.5563 23.2931H28.8796C28.2009 23.2931 27.6507 23.8462 27.6507 24.5284V25.841C25.3562 28.4543 23.9639 31.887 23.9639 35.6465C23.9639 38.3467 24.6821 40.8782 25.9368 43.0586H9.21699C7.18086 43.0586 5.53025 41.3994 5.53025 39.3526ZM15.3616 23.2931C14.6828 23.2931 14.1326 23.8462 14.1326 24.5284V30.7052C14.1326 31.3874 14.6828 31.9405 15.3616 31.9405H21.5061C22.1848 31.9405 22.735 31.3874 22.735 30.7052V24.5284C22.735 23.8462 22.1848 23.2931 21.5061 23.2931H15.3616Z" fill="#4F4CD4"/>
<path fill-rule="evenodd" clip-rule="evenodd" d="M38.7109 23.2931C40.9493 23.2931 43.0479 23.8947 44.8554 24.9458C48.5287 27.0817 51 31.074 51 35.6465C51 42.4692 45.498 48 38.7109 48C34.6903 48 31.1207 46.0591 28.8787 43.0586C27.3359 40.994 26.4218 38.4276 26.4218 35.6465C26.4218 33.7137 26.8634 31.8845 27.6507 30.2553C29.2411 26.9644 32.2422 24.4899 35.8637 23.6263C36.7775 23.4084 37.7308 23.2931 38.7109 23.2931ZM31.439 31.0252L29.9253 30.3235C29.6676 30.2041 29.3778 30.4098 29.4038 30.6939L29.9386 36.5517C29.9645 36.8358 30.2867 36.9852 30.5185 36.8205L35.2976 33.426C35.5294 33.2614 35.497 32.9063 35.2393 32.7868L33.6984 32.0726C34.8126 30.4966 36.6434 29.4698 38.7108 29.4698C42.1044 29.4698 44.8554 32.2352 44.8554 35.6465C44.8554 39.0579 42.1044 41.8233 38.7108 41.8233C38.0321 41.8233 37.4819 42.3764 37.4819 43.0586C37.4819 43.7409 38.0321 44.294 38.7108 44.294C43.4618 44.294 47.3132 40.4224 47.3132 35.6465C47.3132 30.8707 43.4618 26.9991 38.7108 26.9991C35.6492 26.9991 32.9632 28.6066 31.439 31.0252Z" fill="#4F4CD4"/>
</svg>
