<svg width="21" height="20" viewBox="0 0 21 20" fill="none" xmlns="http://www.w3.org/2000/svg">
<path fill-rule="evenodd" clip-rule="evenodd" d="M10.75 17C14.616 17 17.75 13.866 17.75 10C17.75 6.13401 14.616 3 10.75 3C6.88401 3 3.75 6.13401 3.75 10C3.75 13.866 6.88401 17 10.75 17ZM9.16056 8.67889L7.05498 12.89C6.79712 13.4058 7.34424 13.9529 7.85997 13.695L12.0711 11.5894C12.1872 11.5314 12.2814 11.4372 12.3394 11.3211L14.445 7.10997C14.7029 6.59423 14.1558 6.04712 13.64 6.30498L9.42888 8.41056C9.31277 8.46862 9.21862 8.56277 9.16056 8.67889Z" fill="#4F4CD4"/>
</svg>
