<svg width="50" height="48" viewBox="0 0 50 48" fill="none" xmlns="http://www.w3.org/2000/svg">
<path d="M9.87643 12.3077H12.9628C13.9856 12.3077 14.8147 11.4811 14.8147 10.4615C14.8147 9.44194 13.9856 8.61539 12.9628 8.61539H9.87643V12.3077Z" fill="#4F4CD4"/>
<path fill-rule="evenodd" clip-rule="evenodd" d="M11.7283 0C18.2056 0 23.4565 5.23482 23.4565 11.6923C23.4565 17.5216 19.1775 22.3546 13.5801 23.2397L13.5801 44.3077H19.7529V41.1875C18.2768 40.3363 17.2838 38.7453 17.2838 36.9231V34.4615C17.2838 33.4616 17.5828 32.5312 18.0966 31.7546L16.6982 31.2899C15.728 30.9675 15.2036 29.9219 15.527 28.9547C15.8504 27.9874 16.8992 27.4646 17.8694 27.787L19.7749 28.4203L20.3459 26.5704C21.3819 23.2137 24.4928 20.9231 28.0156 20.9231H37.4158C40.9387 20.9231 44.0496 23.2137 45.0856 26.5704L45.6565 28.4203L47.5621 27.787C48.5323 27.4646 49.5811 27.9874 49.9045 28.9547C50.2279 29.9219 49.7035 30.9675 48.7333 31.2899L47.3348 31.7546C47.8486 32.5313 48.1476 33.4616 48.1476 34.4615V36.9231C48.1476 38.7453 47.1545 40.3363 45.6785 41.1875V44.3077H47.5303C48.5531 44.3077 49.3822 45.1342 49.3822 46.1538C49.3822 47.1735 48.5531 48 47.5303 48H1.85183C0.829094 48 0 47.1735 0 46.1538C0 45.1342 0.829093 44.3077 1.85183 44.3077H9.87643L9.87644 23.2397C4.27899 22.3546 0 17.5216 0 11.6923C0 5.23482 5.25092 0 11.7283 0ZM42.1266 29.5385L41.5457 27.6562C40.9879 25.8488 39.3128 24.6154 37.4158 24.6154H28.0156C26.1187 24.6154 24.4436 25.8488 23.8858 27.6562L23.3048 29.5385H42.1266ZM24.6911 41.8462H40.7403V44.3077H24.6911V41.8462ZM7.40733 7.38462C7.40733 6.70488 7.96005 6.15385 8.64188 6.15385H12.9628C15.3492 6.15385 17.2838 8.08247 17.2838 10.4615C17.2838 12.8406 15.3492 14.7692 12.9628 14.7692H9.87643V16.6154C9.87643 17.2951 9.32371 17.8462 8.64188 17.8462C7.96005 17.8462 7.40733 17.2951 7.40733 16.6154V7.38462ZM20.9874 35.6923C20.9874 34.3328 22.0929 33.2308 23.4565 33.2308C24.8202 33.2308 25.9256 34.3328 25.9256 35.6923C25.9256 37.0518 24.8202 38.1538 23.4565 38.1538C22.0929 38.1538 20.9874 37.0518 20.9874 35.6923ZM41.9748 33.2308C40.6112 33.2308 39.5057 34.3328 39.5057 35.6923C39.5057 37.0518 40.6112 38.1538 41.9748 38.1538C43.3385 38.1538 44.444 37.0518 44.444 35.6923C44.444 34.3328 43.3385 33.2308 41.9748 33.2308Z" fill="#4F4CD4"/>
</svg>
