<svg width="48" height="48" viewBox="0 0 48 48" fill="none" xmlns="http://www.w3.org/2000/svg">
<path fill-rule="evenodd" clip-rule="evenodd" d="M24.0001 0C17.6798 0 12.5563 5.08982 12.5563 11.3684C12.5563 17.6398 15.4126 23.221 18.4278 27.2881C19.9286 29.3124 21.4472 30.9321 22.6205 32.0386C23.1803 32.5665 23.6532 32.9699 24.0001 33.2407C24.347 32.9699 24.8199 32.5665 25.3796 32.0386C26.5529 30.9321 28.0715 29.3124 29.5723 27.2881C32.5875 23.221 35.4439 17.6398 35.4439 11.3684C35.4439 5.08982 30.3203 0 24.0001 0ZM16.3709 11.3684L24.0001 4.42105L31.6293 11.3684H29.0862V17.6842H25.2716V12.6316H22.7285V17.6842H18.9139V11.3684H16.3709Z" fill="white"/>
<path d="M31.62 28.7862C31.8588 28.464 32.0977 28.1316 32.3352 27.7895H37.0275C38.4056 27.7895 39.6765 28.5279 40.3522 29.7211L43.5499 35.3684H31.8586L30.9101 29.7151C31.1464 29.415 31.3834 29.1053 31.62 28.7862Z" fill="white"/>
<path d="M28.7544 32.2327C28.1746 32.8554 27.6259 33.4036 27.1305 33.8708C26.4961 34.4691 25.9399 34.9434 25.5084 35.2759C25.4673 35.3076 25.4267 35.3385 25.3868 35.3684H29.2805L28.7544 32.2327Z" fill="white"/>
<path d="M22.4917 35.2759C22.5328 35.3076 22.5734 35.3385 22.6134 35.3684H18.7194L19.2455 32.2324C19.8254 32.8553 20.3742 33.4035 20.8696 33.8708C21.5041 34.4691 22.0603 34.9434 22.4917 35.2759Z" fill="white"/>
<path d="M17.0898 29.7148C16.8536 29.4148 16.6166 29.1052 16.3801 28.7862C16.1413 28.464 15.9024 28.1316 15.6649 27.7895H10.9725C9.59443 27.7895 8.32346 28.5279 7.64782 29.7211L4.45015 35.3684H16.1413L17.0898 29.7148Z" fill="white"/>
<path d="M3.01967 37.8947H15.7174L14.022 48H3.82016C0.902649 48 -0.934901 44.8788 0.495442 42.3527L3.01967 37.8947Z" fill="white"/>
<path d="M29.7043 37.8947H18.2956L16.6002 48H31.3997L29.7043 37.8947Z" fill="white"/>
<path d="M32.2824 37.8947L33.9778 48H44.1798C47.0974 48 48.9349 44.8788 47.5046 42.3527L44.9803 37.8947H32.2824Z" fill="white"/>
</svg>
