<svg width="60" height="48" viewBox="0 0 60 48" fill="none" xmlns="http://www.w3.org/2000/svg">
<path fill-rule="evenodd" clip-rule="evenodd" d="M15.5394 44.5714L15.5394 1.14286C15.5394 0.511673 15.944 0 16.4432 0H30.9038C31.4029 0 31.8076 0.511675 31.8076 1.14286L31.8076 44.5714L33.6152 44.5714V40H40.8455V36.5714H33.6152V33.1429H40.8455V29.7143L33.6152 29.7143V26.2857L40.8455 26.2857V22.8571L33.6152 22.8571V19.4286H40.8455V16L33.6152 16V8.53779L43.8119 12.3301C44.1965 12.4732 44.4606 12.9196 44.4606 13.4265L44.4606 44.5714L47.6239 44.5714C48.3726 44.5714 48.9796 45.3389 48.9796 46.2857C48.9796 47.2325 48.3726 48 47.6239 48L12.3761 48C11.6274 48 11.0204 47.2325 11.0204 46.2857C11.0204 45.3389 11.6274 44.5714 12.3761 44.5714H15.5394ZM19.1545 8L28.1924 8V4.57143L19.1545 4.57143V8ZM28.1924 16H19.1545V12.5714L28.1924 12.5714V16ZM19.1545 24H28.1924V20.5714H19.1545V24ZM28.1924 32H19.1545V28.5714H28.1924V32ZM19.1545 40H28.1924V36.5714H19.1545V40Z" fill="#4F4CD4"/>
<path fill-rule="evenodd" clip-rule="evenodd" d="M7.34694 37.9569C10.1415 37.0446 12.2449 33.0712 12.2449 28.3077C12.2449 22.8698 9.50378 18.4615 6.12245 18.4615C2.74111 18.4615 0 22.8698 0 28.3077C0 33.0712 2.10338 37.0446 4.89796 37.9569V46.7692C4.89796 47.449 5.44618 48 6.12245 48C6.79872 48 7.34694 47.449 7.34694 46.7692V37.9569ZM7.34694 37.9569V33.2308C7.34694 32.551 6.79872 32 6.12245 32C5.44618 32 4.89796 32.551 4.89796 33.2308V37.9569C5.2936 38.086 5.7031 38.1538 6.12245 38.1538C6.5418 38.1538 6.95129 38.086 7.34694 37.9569Z" fill="#4F4CD4"/>
<path fill-rule="evenodd" clip-rule="evenodd" d="M55.102 37.9569C57.8966 37.0446 60 33.0712 60 28.3077C60 22.8698 57.2589 18.4615 53.8776 18.4615C50.4962 18.4615 47.7551 22.8698 47.7551 28.3077C47.7551 33.0712 49.8585 37.0446 52.6531 37.9569V46.7692C52.6531 47.449 53.2013 48 53.8776 48C54.5538 48 55.102 47.449 55.102 46.7692V37.9569ZM55.102 37.9569V33.2308C55.102 32.551 54.5538 32 53.8776 32C53.2013 32 52.6531 32.551 52.6531 33.2308V37.9569C53.0487 38.086 53.4582 38.1538 53.8776 38.1538C54.2969 38.1538 54.7064 38.086 55.102 37.9569Z" fill="#4F4CD4"/>
</svg>
