<svg width="33" height="32" viewBox="0 0 33 32" fill="none" xmlns="http://www.w3.org/2000/svg">
<path fill-rule="evenodd" clip-rule="evenodd" d="M5.80263 2C4.66899 2 3.75 2.9402 3.75 4.1V26.5C3.75 27.6598 4.66899 28.6 5.80263 28.6H16.788C15.9437 27.6349 15.3143 26.4688 14.9767 25.1806C14.663 25.5595 14.1945 25.8 13.6711 25.8C12.7264 25.8 11.9605 25.0165 11.9605 24.05C11.9605 23.0835 12.7264 22.3 13.6711 22.3C14.0592 22.3 14.4171 22.4323 14.7042 22.6551C14.881 18.1758 18.4863 14.6 22.9079 14.6C23.1383 14.6 23.3665 14.6097 23.5921 14.6288V4.1C23.5921 2.9402 22.6731 2 21.5395 2H5.80263ZM6.48684 6.2C6.48684 5.4268 7.09951 4.8 7.85526 4.8H19.4868C20.2426 4.8 20.8553 5.4268 20.8553 6.2V7.6C20.8553 8.3732 20.2426 9 19.4868 9H7.85526C7.09951 9 6.48684 8.3732 6.48684 7.6V6.2ZM6.48684 12.85C6.48684 11.8835 7.25267 11.1 8.19737 11.1C9.14207 11.1 9.9079 11.8835 9.9079 12.85C9.9079 13.8165 9.14207 14.6 8.19737 14.6C7.25267 14.6 6.48684 13.8165 6.48684 12.85ZM6.48684 24.05C6.48684 23.0835 7.25267 22.3 8.19737 22.3C9.14207 22.3 9.9079 23.0835 9.9079 24.05C9.9079 25.0165 9.14207 25.8 8.19737 25.8C7.25267 25.8 6.48684 25.0165 6.48684 24.05ZM6.48684 18.45C6.48684 17.4835 7.25267 16.7 8.19737 16.7C9.14207 16.7 9.9079 17.4835 9.9079 18.45C9.9079 19.4165 9.14207 20.2 8.19737 20.2C7.25267 20.2 6.48684 19.4165 6.48684 18.45ZM11.9605 18.45C11.9605 17.4835 12.7264 16.7 13.6711 16.7C14.6157 16.7 15.3816 17.4835 15.3816 18.45C15.3816 19.4165 14.6157 20.2 13.6711 20.2C12.7264 20.2 11.9605 19.4165 11.9605 18.45ZM11.9605 12.85C11.9605 11.8835 12.7264 11.1 13.6711 11.1C14.6157 11.1 15.3816 11.8835 15.3816 12.85C15.3816 13.8165 14.6157 14.6 13.6711 14.6C12.7264 14.6 11.9605 13.8165 11.9605 12.85ZM17.4342 12.85C17.4342 11.8835 18.2 11.1 19.1447 11.1C20.0894 11.1 20.8553 11.8835 20.8553 12.85C20.8553 13.8165 20.0894 14.6 19.1447 14.6C18.2 14.6 17.4342 13.8165 17.4342 12.85Z" fill="#5BA0C5"/>
<path d="M19.4868 20.9C19.4868 20.5134 19.7932 20.2 20.1711 20.2C20.5489 20.2 20.8553 20.5134 20.8553 20.9C20.8553 21.2866 20.5489 21.6 20.1711 21.6C19.7932 21.6 19.4868 21.2866 19.4868 20.9Z" fill="#5BA0C5"/>
<path d="M24.9605 25.1C24.9605 24.7134 25.2669 24.4 25.6447 24.4C26.0226 24.4 26.3289 24.7134 26.3289 25.1C26.3289 25.4866 26.0226 25.8 25.6447 25.8C25.2669 25.8 24.9605 25.4866 24.9605 25.1Z" fill="#5BA0C5"/>
<path fill-rule="evenodd" clip-rule="evenodd" d="M29.75 23C29.75 26.866 26.6867 30 22.9079 30C19.1291 30 16.0658 26.866 16.0658 23C16.0658 19.134 19.1291 16 22.9079 16C26.6867 16 29.75 19.134 29.75 23ZM20.1711 23C21.3047 23 22.2237 22.0598 22.2237 20.9C22.2237 19.7402 21.3047 18.8 20.1711 18.8C19.0374 18.8 18.1184 19.7402 18.1184 20.9C18.1184 22.0598 19.0374 23 20.1711 23ZM25.5006 20.6298C25.7326 20.3246 25.6789 19.8848 25.3806 19.6475C25.0823 19.4101 24.6525 19.4651 24.4205 19.7702L19.631 26.0702C19.399 26.3754 19.4527 26.8152 19.751 27.0525C20.0493 27.2899 20.4792 27.2349 20.7112 26.9298L25.5006 20.6298ZM25.6447 27.2C26.7784 27.2 27.6974 26.2598 27.6974 25.1C27.6974 23.9402 26.7784 23 25.6447 23C24.5111 23 23.5921 23.9402 23.5921 25.1C23.5921 26.2598 24.5111 27.2 25.6447 27.2Z" fill="#5BA0C5"/>
</svg>
