<svg width="36" height="48" viewBox="0 0 36 48" fill="none" xmlns="http://www.w3.org/2000/svg">
<path d="M25.9947 0.0299088C28.4508 0.314666 30.1949 2.52562 29.8693 4.94153L29.7075 6.14217C29.4258 8.23258 27.6168 9.79423 25.4769 9.79423C23.3371 9.79423 21.5281 8.23258 21.2464 6.14217L21.0845 4.94153C20.759 2.52562 22.5031 0.314666 24.9592 0.0299088C25.3032 -0.0099696 25.6507 -0.0099696 25.9947 0.0299088Z" fill="#4F4CD4"/>
<path fill-rule="evenodd" clip-rule="evenodd" d="M31.2591 15.0069C31.2386 14.8055 31.0667 14.6521 30.8613 14.6521C30.6405 14.6521 30.4615 14.8285 30.4615 15.0461V44.7252C30.4615 46.5338 28.9737 48 27.1385 48L22.7078 48V34.5664C24.5035 33.7209 26.1256 32.285 27.4199 30.3413C27.9234 29.5852 27.7096 28.5701 26.9424 28.074C26.1753 27.5778 25.1452 27.7885 24.6417 28.5445C22.9441 31.0939 20.7908 32.1719 18.8309 32.1719C16.8711 32.1719 14.7178 31.0939 13.0202 28.5445C12.5167 27.7885 11.4866 27.5778 10.7195 28.074C9.95227 28.5701 9.73849 29.5852 10.2419 30.3413C11.5363 32.285 13.1584 33.7208 14.954 34.5664V48L10.5233 48C8.68807 48 7.2003 46.5338 7.2003 44.7252V35.9925H3.87727L7.69174 18.271C7.72698 18.1074 7.62866 17.9445 7.46589 17.8969C7.29755 17.8476 7.11993 17.9388 7.0644 18.103L3.23821 29.4149C2.94804 30.2728 2.00709 30.7364 1.13655 30.4505C0.266009 30.1645 -0.204465 29.2372 0.0857142 28.3793L4.01149 16.773C4.53918 15.2129 6.02068 14.1606 7.6894 14.1606H17.5525C17.8254 12.2897 19.4546 10.8858 21.3896 10.8858H30.672C32.6637 10.8858 34.3314 12.3732 34.5296 14.3262L35.9916 28.7342C36.0829 29.634 35.4168 30.4364 34.5037 30.5264C33.5906 30.6164 32.7764 29.9599 32.6851 29.06L31.2591 15.0069ZM22.2472 26.7602C22.5004 24.8811 21.1439 23.1615 19.2336 22.94C18.966 22.909 18.6957 22.909 18.4282 22.94C16.5179 23.1615 15.1613 24.8811 15.4146 26.7602L15.5404 27.694C15.7596 29.3199 17.1666 30.5345 18.8309 30.5345C20.4952 30.5345 21.9022 29.3199 22.1213 27.694L22.2472 26.7602Z" fill="#4F4CD4"/>
<path d="M18.2771 48H19.3847V42.542H18.2771V48Z" fill="#4F4CD4"/>
<path d="M12.1233 3.30531C14.2984 3.57325 15.8413 5.52814 15.5694 7.67168L15.3662 9.27372C15.1307 11.1301 13.5294 12.5232 11.631 12.5232C9.73259 12.5232 8.13127 11.1301 7.8958 9.27372L7.6926 7.67168C7.42071 5.52814 8.96358 3.57325 11.1387 3.30531C11.4656 3.26504 11.7964 3.26504 12.1233 3.30531Z" fill="#4F4CD4"/>
</svg>
