<svg width="21" height="20" viewBox="0 0 21 20" fill="none" xmlns="http://www.w3.org/2000/svg">
<path fill-rule="evenodd" clip-rule="evenodd" d="M11.355 16.2411C12.9609 14.8158 15.75 11.8571 15.75 8.5C15.75 5.46243 13.2876 3 10.25 3C7.21243 3 4.75 5.46243 4.75 8.5C4.75 11.8571 7.53911 14.8158 9.14498 16.2411C9.78413 16.8083 10.7159 16.8083 11.355 16.2411ZM10.2499 10.857C11.5517 10.857 12.607 9.80172 12.607 8.4999C12.607 7.19809 11.5517 6.14276 10.2499 6.14276C8.94809 6.14276 7.89276 7.19809 7.89276 8.4999C7.89276 9.80172 8.94809 10.857 10.2499 10.857Z" fill="#4F4CD4"/>
</svg>
