<svg width="16" height="16" viewBox="0 0 16 16" fill="none" xmlns="http://www.w3.org/2000/svg">
<path fill-rule="evenodd" clip-rule="evenodd" d="M8.65515 3.59798C9.44746 3.59798 10.0898 2.95568 10.0898 2.16337C10.0898 1.37106 9.44746 0.72876 8.65515 0.72876C7.86283 0.72876 7.22054 1.37106 7.22054 2.16337C7.22054 2.95568 7.86283 3.59798 8.65515 3.59798ZM8.1373 4.03731L7.93294 3.96915L7.72356 4.01982L4.88411 4.70704L4.60371 4.7749L4.44107 5.01318L2.88818 7.28835L4.12711 8.13396L5.51736 6.09708L7.04294 5.72786L6.64102 9.55151L6.61415 9.80705L3.38239 14.8677L4.64659 15.675L7.74617 10.8214L9.50954 12.11L10.724 15.5228L12.1372 15.0199L10.8452 11.3894L10.7678 11.1716L10.5812 11.0353L8.17792 9.27904L8.49251 6.28618L9.32415 7.28841L9.4579 7.44959L9.6558 7.51815L12.2584 8.41983L12.7494 7.00248L10.3448 6.16937L8.88007 4.40425L8.74334 4.23946L8.54022 4.17171L8.1373 4.03731Z" fill="#546880"/>
</svg>
