<svg width="16" height="16" viewBox="0 0 16 16" fill="none" xmlns="http://www.w3.org/2000/svg">
<path fill-rule="evenodd" clip-rule="evenodd" d="M9.10502 14.2411C10.7109 12.8158 13.5 9.85712 13.5 6.5C13.5 3.46243 11.0376 1 8 1C4.96243 1 2.5 3.46243 2.5 6.5C2.5 9.85712 5.28911 12.8158 6.89498 14.2411C7.53413 14.8083 8.46587 14.8083 9.10502 14.2411ZM7.9999 8.85705C9.30172 8.85705 10.357 7.80172 10.357 6.4999C10.357 5.19809 9.30172 4.14276 7.9999 4.14276C6.69809 4.14276 5.64276 5.19809 5.64276 6.4999C5.64276 7.80172 6.69809 8.85705 7.9999 8.85705Z" fill="white"/>
</svg>
