<svg width="24" height="24" viewBox="0 0 24 24" fill="none" xmlns="http://www.w3.org/2000/svg">
<path fill-rule="evenodd" clip-rule="evenodd" d="M12 10.5858L6.70711 5.29289C6.31658 4.90237 5.68342 4.90237 5.29289 5.29289C4.90237 5.68342 4.90237 6.31658 5.29289 6.70711L10.5858 12L5.2929 17.2929C4.90238 17.6834 4.90238 18.3166 5.2929 18.7071C5.68343 19.0976 6.31659 19.0976 6.70712 18.7071L12 13.4142L17.2929 18.7071C17.6834 19.0976 18.3166 19.0976 18.7071 18.7071C19.0976 18.3166 19.0976 17.6834 18.7071 17.2929L13.4142 12L18.7071 6.70711C19.0976 6.31658 19.0976 5.68342 18.7071 5.2929C18.3166 4.90237 17.6834 4.90237 17.2929 5.2929L12 10.5858Z" fill="#4F4CD4"/>
</svg>
