<svg width="15" height="32" viewBox="0 0 15 32" fill="none" xmlns="http://www.w3.org/2000/svg">
<path d="M9.025 4.85714C9.025 4.38376 9.41115 4 9.8875 4C10.3638 4 10.75 4.38376 10.75 4.85714V6.28571H19.95V4.85714C19.95 4.38376 20.3362 4 20.8125 4C21.2888 4 21.675 4.38376 21.675 4.85714V6.28571H23.2647C24.6097 6.28571 25.7 7.30906 25.7 8.57143V16.3459C25.1661 16.039 24.587 15.8011 23.975 15.6446V11.3407C23.975 10.758 23.4767 10.2857 22.8621 10.2857H7.8379C7.22326 10.2857 6.725 10.758 6.725 11.3407V22.9451C6.725 23.5277 7.22326 24 7.8379 24H15.5674C15.7249 24.6082 15.9643 25.1837 16.2731 25.7143H7.43529C6.09032 25.7143 5 24.6909 5 23.4286V8.57143C5 7.30906 6.09032 6.28571 7.43529 6.28571H9.025V4.85714Z" fill="#4F4CD4"/>
<path d="M18.225 16.5714V16.7155C17.6167 17.1504 17.0825 17.6812 16.645 18.2857H16.5C16.1824 18.2857 15.925 18.0299 15.925 17.7143V16.5714C15.925 16.2558 16.1824 16 16.5 16H17.65C17.9676 16 18.225 16.2558 18.225 16.5714Z" fill="#4F4CD4"/>
<path d="M9.6 12.5714C9.28244 12.5714 9.025 12.8273 9.025 13.1429V14.2857C9.025 14.6013 9.28244 14.8571 9.6 14.8571H10.75C11.0676 14.8571 11.325 14.6013 11.325 14.2857V13.1429C11.325 12.8273 11.0676 12.5714 10.75 12.5714H9.6Z" fill="#4F4CD4"/>
<path d="M9.025 16.5714C9.025 16.2558 9.28244 16 9.6 16H10.75C11.0676 16 11.325 16.2558 11.325 16.5714V17.7143C11.325 18.0299 11.0676 18.2857 10.75 18.2857H9.6C9.28244 18.2857 9.025 18.0299 9.025 17.7143V16.5714Z" fill="#4F4CD4"/>
<path d="M9.6 19.4286C9.28244 19.4286 9.025 19.6844 9.025 20V21.1429C9.025 21.4584 9.28244 21.7143 9.6 21.7143H10.75C11.0676 21.7143 11.325 21.4584 11.325 21.1429V20C11.325 19.6844 11.0676 19.4286 10.75 19.4286H9.6Z" fill="#4F4CD4"/>
<path d="M12.475 13.1429C12.475 12.8273 12.7324 12.5714 13.05 12.5714H14.2C14.5176 12.5714 14.775 12.8273 14.775 13.1429V14.2857C14.775 14.6013 14.5176 14.8571 14.2 14.8571H13.05C12.7324 14.8571 12.475 14.6013 12.475 14.2857V13.1429Z" fill="#4F4CD4"/>
<path d="M13.05 16C12.7324 16 12.475 16.2558 12.475 16.5714V17.7143C12.475 18.0299 12.7324 18.2857 13.05 18.2857H14.2C14.5176 18.2857 14.775 18.0299 14.775 17.7143V16.5714C14.775 16.2558 14.5176 16 14.2 16H13.05Z" fill="#4F4CD4"/>
<path d="M12.475 20C12.475 19.6844 12.7324 19.4286 13.05 19.4286H14.2C14.5176 19.4286 14.775 19.6844 14.775 20V21.1429C14.775 21.4584 14.5176 21.7143 14.2 21.7143H13.05C12.7324 21.7143 12.475 21.4584 12.475 21.1429V20Z" fill="#4F4CD4"/>
<path d="M16.5 12.5714C16.1824 12.5714 15.925 12.8273 15.925 13.1429V14.2857C15.925 14.6013 16.1824 14.8571 16.5 14.8571H17.65C17.9676 14.8571 18.225 14.6013 18.225 14.2857V13.1429C18.225 12.8273 17.9676 12.5714 17.65 12.5714H16.5Z" fill="#4F4CD4"/>
<path d="M19.375 13.1429C19.375 12.8273 19.6324 12.5714 19.95 12.5714H21.1C21.4176 12.5714 21.675 12.8273 21.675 13.1429V14.2857C21.675 14.6013 21.4176 14.8571 21.1 14.8571H19.95C19.6324 14.8571 19.375 14.6013 19.375 14.2857V13.1429Z" fill="#4F4CD4"/>
<path fill-rule="evenodd" clip-rule="evenodd" d="M28 22.2857C28 25.4416 25.4256 28 22.25 28C19.0744 28 16.5 25.4416 16.5 22.2857C16.5 19.1298 19.0744 16.5714 22.25 16.5714C25.4256 16.5714 28 19.1298 28 22.2857ZM22.25 17.7143C22.5676 17.7143 22.825 17.9701 22.825 18.2857V21.9326L24.8071 22.9175C25.0912 23.0586 25.2063 23.4018 25.0643 23.6841C24.9223 23.9664 24.5769 24.0808 24.2929 23.9397L21.9929 22.7968C21.7981 22.7 21.675 22.5022 21.675 22.2857V18.2857C21.675 17.9701 21.9324 17.7143 22.25 17.7143Z" fill="#4F4CD4"/>
</svg>
