<svg width="22" height="24" viewBox="0 0 22 24" fill="none" xmlns="http://www.w3.org/2000/svg">
<path fill-rule="evenodd" clip-rule="evenodd" d="M1.73684 0C0.77761 0 0 0.805887 0 1.8V21C0 21.9941 0.77761 22.8 1.73684 22.8H11.0322C10.3177 21.9727 9.78515 20.9733 9.49954 19.8691C9.23405 20.1938 8.83762 20.4 8.39474 20.4C7.59538 20.4 6.94737 19.7284 6.94737 18.9C6.94737 18.0716 7.59538 17.4 8.39474 17.4C8.72316 17.4 9.02603 17.5134 9.26891 17.7044C9.41851 13.865 12.4691 10.8 16.2105 10.8C16.4055 10.8 16.5986 10.8083 16.7895 10.8246V1.8C16.7895 0.805887 16.0119 0 15.0526 0H1.73684ZM2.31579 3.6C2.31579 2.93726 2.8342 2.4 3.47368 2.4H13.3158C13.9553 2.4 14.4737 2.93726 14.4737 3.6V4.8C14.4737 5.46274 13.9553 6 13.3158 6H3.47368C2.8342 6 2.31579 5.46274 2.31579 4.8V3.6ZM2.31579 9.3C2.31579 8.47157 2.9638 7.8 3.76316 7.8C4.56252 7.8 5.21053 8.47157 5.21053 9.3C5.21053 10.1284 4.56252 10.8 3.76316 10.8C2.9638 10.8 2.31579 10.1284 2.31579 9.3ZM2.31579 18.9C2.31579 18.0716 2.9638 17.4 3.76316 17.4C4.56252 17.4 5.21053 18.0716 5.21053 18.9C5.21053 19.7284 4.56252 20.4 3.76316 20.4C2.9638 20.4 2.31579 19.7284 2.31579 18.9ZM2.31579 14.1C2.31579 13.2716 2.9638 12.6 3.76316 12.6C4.56252 12.6 5.21053 13.2716 5.21053 14.1C5.21053 14.9284 4.56252 15.6 3.76316 15.6C2.9638 15.6 2.31579 14.9284 2.31579 14.1ZM6.94737 14.1C6.94737 13.2716 7.59538 12.6 8.39474 12.6C9.1941 12.6 9.8421 13.2716 9.8421 14.1C9.8421 14.9284 9.1941 15.6 8.39474 15.6C7.59538 15.6 6.94737 14.9284 6.94737 14.1ZM6.94737 9.3C6.94737 8.47157 7.59538 7.8 8.39474 7.8C9.1941 7.8 9.8421 8.47157 9.8421 9.3C9.8421 10.1284 9.1941 10.8 8.39474 10.8C7.59538 10.8 6.94737 10.1284 6.94737 9.3ZM11.5789 9.3C11.5789 8.47157 12.227 7.8 13.0263 7.8C13.8257 7.8 14.4737 8.47157 14.4737 9.3C14.4737 10.1284 13.8257 10.8 13.0263 10.8C12.227 10.8 11.5789 10.1284 11.5789 9.3Z" fill="#4F4CD4"/>
<path d="M13.3158 16.2C13.3158 15.8686 13.575 15.6 13.8947 15.6C14.2145 15.6 14.4737 15.8686 14.4737 16.2C14.4737 16.5314 14.2145 16.8 13.8947 16.8C13.575 16.8 13.3158 16.5314 13.3158 16.2Z" fill="#4F4CD4"/>
<path d="M17.9474 19.8C17.9474 19.4686 18.2066 19.2 18.5263 19.2C18.8461 19.2 19.1053 19.4686 19.1053 19.8C19.1053 20.1314 18.8461 20.4 18.5263 20.4C18.2066 20.4 17.9474 20.1314 17.9474 19.8Z" fill="#4F4CD4"/>
<path fill-rule="evenodd" clip-rule="evenodd" d="M22 18C22 21.3137 19.408 24 16.2105 24C13.0131 24 10.4211 21.3137 10.4211 18C10.4211 14.6863 13.0131 12 16.2105 12C19.408 12 22 14.6863 22 18ZM13.8947 18C14.854 18 15.6316 17.1941 15.6316 16.2C15.6316 15.2059 14.854 14.4 13.8947 14.4C12.9355 14.4 12.1579 15.2059 12.1579 16.2C12.1579 17.1941 12.9355 18 13.8947 18ZM18.4044 15.9684C18.6007 15.7068 18.5552 15.3298 18.3028 15.1264C18.0504 14.9229 17.6867 14.9701 17.4904 15.2316L13.4378 20.6316C13.2415 20.8932 13.2869 21.2702 13.5393 21.4736C13.7917 21.6771 14.1555 21.6299 14.3518 21.3684L18.4044 15.9684ZM18.5263 21.6C19.4855 21.6 20.2632 20.7941 20.2632 19.8C20.2632 18.8059 19.4855 18 18.5263 18C17.5671 18 16.7895 18.8059 16.7895 19.8C16.7895 20.7941 17.5671 21.6 18.5263 21.6Z" fill="#4F4CD4"/>
</svg>
