<svg width="32" height="32" viewBox="0 0 32 32" fill="none" xmlns="http://www.w3.org/2000/svg">
<path fill-rule="evenodd" clip-rule="evenodd" d="M6.85714 26.2857L6.85714 4.57143C6.85714 4.25584 7.11298 4 7.42857 4H16.5714C16.887 4 17.1429 4.25584 17.1429 4.57143L17.1429 26.2857L18.2857 26.2857C18.2857 26.2857 18.2857 26.2857 18.2857 26.2857V24H22.8571V22.2857H18.2857V20.5714L22.8571 20.5714V18.8571L18.2857 18.8571V17.1429L22.8571 17.1429V15.4286L18.2857 15.4286V13.7143H22.8571V12L18.2857 12V8.2689L24.7327 10.1651C24.9759 10.2366 25.1429 10.4598 25.1429 10.7133L25.1429 26.2857C25.1429 26.2857 25.1429 26.2857 25.1429 26.2857L27.1429 26.2857C27.6162 26.2857 28 26.6695 28 27.1429C28 27.6162 27.6162 28 27.1429 28L4.85714 28C4.38376 28 4 27.6162 4 27.1429C4 26.6695 4.38376 26.2857 4.85714 26.2857L6.85714 26.2857ZM9.14286 8L14.8571 8V6.28572L9.14286 6.28572V8ZM14.8571 12L9.14286 12V10.2857L14.8571 10.2857V12ZM9.14286 16H14.8571V14.2857H9.14286V16ZM14.8571 20H9.14286V18.2857H14.8571V20ZM9.14286 24H14.8571V22.2857H9.14286V24Z" fill="#4F4CD4"/>
</svg>
