<svg width="32" height="32" viewBox="0 0 32 32" fill="none" xmlns="http://www.w3.org/2000/svg">
<path d="M11.7381 18.0247C15.4045 17.7273 18.2857 14.7067 18.2857 11.0244C18.2857 7.14493 15.0877 4 11.1429 4C7.19797 4 4 7.14493 4 11.0244C4 14.7067 6.88123 17.7273 10.5476 18.0247L10.5476 13.6872L7.54948 11.8109L8.18862 10.8232L10.5476 12.2995V8.68293H11.7381V18.0247Z" fill="#4F4CD4"/>
<path d="M10.5476 26.2439V18.0488H11.7381L11.7381 26.2439H21.2619V23.3171H22.4523V19.8004L26.0891 17.0493L25.3632 16.1214L22.4523 18.3234V13.1975L25.2188 10.885L24.4478 9.99301L22.4523 11.661V6.92683H21.2619V15.6428L18.9828 13.809C19.3021 12.9397 19.4761 12.002 19.4761 11.0244C19.4761 9.55876 19.0849 8.18299 18.3996 6.99258C19.3742 5.20544 20.5678 4 21.8571 4C25.1445 4 27.8095 11.8365 27.8095 17.1707C27.8095 22.179 25.4603 23.2009 22.4524 23.3071V26.2439H28.1071C28.6003 26.2439 29 26.637 29 27.122C29 27.6069 28.6003 28 28.1071 28L4.89286 28C4.39975 28 4 27.6069 4 27.122C4 26.637 4.39975 26.2439 4.89286 26.2439H10.5476Z" fill="#4F4CD4"/>
<path d="M18.4785 14.9159C17.8586 16.0436 16.9778 17.0121 15.9155 17.7432C16.0905 22.258 18.3722 23.2051 21.2619 23.3071V17.1554L18.4785 14.9159Z" fill="#4F4CD4"/>
</svg>
