<svg width="32" height="32" viewBox="0 0 32 32" fill="none" xmlns="http://www.w3.org/2000/svg">
<path fill-rule="evenodd" clip-rule="evenodd" d="M9.51069 25.3571L9.51069 4.54762C9.51069 4.24518 9.70627 4 9.94752 4H16.9368C17.1781 4 17.3737 4.24518 17.3737 4.54762L17.3737 25.3571L18.2473 25.3571V23.1667H21.742V21.5238H18.2473V19.881H21.742V18.2381L18.2473 18.2381V16.5952L21.742 16.5952V14.9524L18.2473 14.9524V13.3095H21.742V11.6667L18.2473 11.6667V8.09103L23.1757 9.90818C23.3617 9.97673 23.4893 10.1906 23.4893 10.4335L23.4893 25.3571L25.0182 25.3571C25.3801 25.3571 25.6735 25.7249 25.6735 26.1786C25.6735 26.6322 25.3801 27 25.0182 27L7.98178 27C7.6199 27 7.32653 26.6322 7.32653 26.1786C7.32653 25.7249 7.6199 25.3571 7.98178 25.3571H9.51069ZM11.258 7.83333L15.6263 7.83333V6.19048L11.258 6.19048V7.83333ZM15.6263 11.6667H11.258V10.0238L15.6263 10.0238V11.6667ZM11.258 15.5H15.6263V13.8571H11.258V15.5ZM15.6263 19.3333H11.258V17.6905H15.6263V19.3333ZM11.258 23.1667H15.6263V21.5238H11.258V23.1667Z" fill="#4F4CD4"/>
<path fill-rule="evenodd" clip-rule="evenodd" d="M5.55102 22.1877C6.90173 21.7505 7.91837 19.8466 7.91837 17.5641C7.91837 14.9585 6.5935 12.8462 4.95918 12.8462C3.32487 12.8462 2 14.9585 2 17.5641C2 19.8466 3.01663 21.7505 4.36735 22.1877V26.4103C4.36735 26.736 4.63232 27 4.95918 27C5.28605 27 5.55102 26.736 5.55102 26.4103V22.1877ZM5.55102 22.1877V19.9231C5.55102 19.5974 5.28605 19.3333 4.95918 19.3333C4.63232 19.3333 4.36735 19.5974 4.36735 19.9231V22.1877C4.55858 22.2496 4.7565 22.2821 4.95918 22.2821C5.16187 22.2821 5.35979 22.2496 5.55102 22.1877Z" fill="#4F4CD4"/>
<path fill-rule="evenodd" clip-rule="evenodd" d="M28.6327 22.1877C29.9834 21.7505 31 19.8466 31 17.5641C31 14.9585 29.6751 12.8462 28.0408 12.8462C26.4065 12.8462 25.0816 14.9585 25.0816 17.5641C25.0816 19.8466 26.0983 21.7505 27.449 22.1877V26.4103C27.449 26.736 27.714 27 28.0408 27C28.3677 27 28.6327 26.736 28.6327 26.4103V22.1877ZM28.6327 22.1877V19.9231C28.6327 19.5974 28.3677 19.3333 28.0408 19.3333C27.714 19.3333 27.449 19.5974 27.449 19.9231V22.1877C27.6402 22.2496 27.8381 22.2821 28.0408 22.2821C28.2435 22.2821 28.4414 22.2496 28.6327 22.1877Z" fill="#4F4CD4"/>
</svg>
