<svg width="32" height="32" viewBox="0 0 32 32" fill="none" xmlns="http://www.w3.org/2000/svg">
<path d="M16 4L32 11.0216L28.6666 12.4844V19.4948C29.4434 19.7702 30 20.5133 30 21.3868C30 22.0685 29.6611 22.6707 29.143 23.0333L30.6127 26.4732L29.3872 27L28 23.7531L26.6127 27L25.3872 26.4732L26.8569 23.0332C26.3389 22.6707 26 22.0684 26 21.3868C26 20.5133 26.5565 19.7702 27.3333 19.4948V13.0695L16 18.0432L0 11.0216L16 4Z" fill="#4F4CD4"/>
<path d="M7.33333 19.9993V15.6996L16 19.503L24.6667 15.6997V19.9993C24.6667 22.6966 20.9408 24.7304 16 24.7304C11.0592 24.7304 7.33333 22.6966 7.33333 19.9993Z" fill="#4F4CD4"/>
</svg>
