<svg width="32" height="32" viewBox="0 0 32 32" fill="none" xmlns="http://www.w3.org/2000/svg">
<path d="M7.72833 9.17949H9.51844C10.1116 9.17949 10.5925 8.69733 10.5925 8.10256C10.5925 7.5078 10.1116 7.02564 9.51844 7.02564H7.72833V9.17949Z" fill="#4F4CD4"/>
<path fill-rule="evenodd" clip-rule="evenodd" d="M8.80239 2C12.5593 2 15.6048 5.05365 15.6048 8.82051C15.6048 12.2209 13.123 15.0402 9.87646 15.5565L9.87646 27.8462H13.4567V26.0261C12.6006 25.5295 12.0246 24.6014 12.0246 23.5385V22.1026C12.0246 21.5193 12.198 20.9766 12.496 20.5235L11.685 20.2524C11.1222 20.0643 10.8181 19.4545 11.0057 18.8902C11.1932 18.326 11.8015 18.021 12.3643 18.2091L13.4695 18.5785L13.8006 17.4994C14.4015 15.5413 16.2058 14.2051 18.2491 14.2051H23.7012C25.7444 14.2051 27.5488 15.5413 28.1496 17.4994L28.4808 18.5785L29.586 18.2091C30.1487 18.021 30.757 18.326 30.9446 18.8902C31.1322 19.4545 30.828 20.0643 30.2653 20.2524L29.4542 20.5235C29.7522 20.9766 29.9256 21.5193 29.9256 22.1026V23.5385C29.9256 24.6014 29.3496 25.5295 28.4935 26.0261V27.8462H29.5676C30.1608 27.8462 30.6417 28.3283 30.6417 28.9231C30.6417 29.5178 30.1608 30 29.5676 30H3.07406C2.48087 30 2 29.5178 2 28.9231C2 28.3283 2.48087 27.8462 3.07406 27.8462H7.72833L7.72833 15.5565C4.48182 15.0402 2 12.2209 2 8.82051C2 5.05365 5.04554 2 8.80239 2ZM26.4334 19.2308L26.0965 18.1328C25.773 17.0785 24.8014 16.359 23.7012 16.359H18.2491C17.1489 16.359 16.1773 17.0785 15.8537 18.1328L15.5168 19.2308H26.4334ZM16.3208 26.4103H25.6294V27.8462H16.3208V26.4103ZM6.29625 6.30769C6.29625 5.91118 6.61683 5.58974 7.01229 5.58974H9.51844C10.9025 5.58974 12.0246 6.71477 12.0246 8.10256C12.0246 9.49036 10.9025 10.6154 9.51844 10.6154H7.72833V11.6923C7.72833 12.0888 7.40775 12.4103 7.01229 12.4103C6.61683 12.4103 6.29625 12.0888 6.29625 11.6923V6.30769ZM14.1727 22.8205C14.1727 22.0275 14.8139 21.3846 15.6048 21.3846C16.3957 21.3846 17.0369 22.0275 17.0369 22.8205C17.0369 23.6135 16.3957 24.2564 15.6048 24.2564C14.8139 24.2564 14.1727 23.6135 14.1727 22.8205ZM26.3454 21.3846C25.5545 21.3846 24.9133 22.0275 24.9133 22.8205C24.9133 23.6135 25.5545 24.2564 26.3454 24.2564C27.1363 24.2564 27.7775 23.6135 27.7775 22.8205C27.7775 22.0275 27.1363 21.3846 26.3454 21.3846Z" fill="#4F4CD4"/>
</svg>
