<svg width="24" height="24" viewBox="0 0 24 24" fill="none" xmlns="http://www.w3.org/2000/svg">
<path fill-rule="evenodd" clip-rule="evenodd" d="M16.0001 13.2729L20.2806 8.99239C20.1878 8.99752 20.0942 9.00012 20.0001 9.00012C19.3277 9.00012 18.6863 8.86739 18.1007 8.62671L14.7273 12.0001H9.27291L3.9001 6.62731V3.9001H15.0011C15.0136 3.26388 15.1449 2.65678 15.3738 2.1001H3.0001C2.50304 2.1001 2.1001 2.50304 2.1001 3.0001V7.0001C2.1001 7.23879 2.19492 7.46771 2.3637 7.63649L8.00012 13.2729V21.0001C8.00012 21.3216 8.15464 21.6234 8.41541 21.8114C8.67618 21.9993 9.0114 22.0505 9.31635 21.9488L15.3163 19.9488C15.7247 19.8127 16.0001 19.4306 16.0001 19.0001V13.2729ZM10.0001 19.6127V14.0001H14.0001V18.2794L10.0001 19.6127Z" fill="#4F4CD4"/>
<circle cx="20" cy="4" r="3" fill="#DD2B0E"/>
</svg>
