<svg width="33" height="32" viewBox="0 0 33 32" fill="none" xmlns="http://www.w3.org/2000/svg">
<path fill-rule="evenodd" clip-rule="evenodd" d="M4.38128 26.0714L4.38128 1.64286C4.38128 1.28782 4.6691 1 5.02414 1H15.3099C15.6649 1 15.9527 1.28782 15.9527 1.64286L15.9527 26.0714L17.2384 26.0714C17.2384 26.0714 17.2384 26.0714 17.2384 26.0714V23.5H22.3813V21.5714H17.2384V19.6429H22.3813V17.7143L17.2384 17.7143V15.7857L22.3813 15.7857V13.8571L17.2384 13.8571V11.9286H22.3813V10L17.2384 10V5.80251L24.4912 7.93569C24.7648 8.01616 24.9527 8.26725 24.9527 8.55242L24.9527 26.0714C24.9527 26.0714 24.9527 26.0714 24.9527 26.0714L27.2027 26.0714C27.7353 26.0714 28.167 26.5032 28.167 27.0357C28.167 27.5683 27.7353 28 27.2027 28L2.13128 28C1.59872 28 1.16699 27.5683 1.16699 27.0357C1.16699 26.5032 1.59872 26.0714 2.13128 26.0714L4.38128 26.0714ZM6.95271 5.5L13.3813 5.5V3.57143L6.95271 3.57143V5.5ZM13.3813 10H6.95271V8.07143L13.3813 8.07143V10ZM6.95271 14.5H13.3813V12.5714H6.95271V14.5ZM13.3813 19H6.95271V17.0714H13.3813V19ZM6.95271 23.5H13.3813V21.5714H6.95271V23.5Z" fill="#CF67B3"/>
<path d="M15.167 22.5C15.167 24.954 16.3467 27.1328 18.1657 28.4995L18.7664 27.7L18.1657 28.4995C19.4194 29.4414 20.9794 30 22.667 30C24.3546 30 25.9146 29.4414 27.1683 28.4995C27.9805 27.8893 28.6648 27.1178 29.1738 26.232C29.8059 25.1321 30.167 23.8567 30.167 22.5C30.167 18.3579 26.8091 15 22.667 15C20.9794 15 19.4194 15.5586 18.1657 16.5005C16.7277 17.5809 15.689 19.1684 15.317 21.0011C15.2185 21.4862 15.167 21.9876 15.167 22.5Z" fill="white" stroke="#FBE1F4" stroke-width="2"/>
<path fill-rule="evenodd" clip-rule="evenodd" d="M16.167 22.5C16.167 24.6263 17.1879 26.5141 18.7664 27.7C19.8528 28.5163 21.2034 29 22.667 29C24.1306 29 25.4812 28.5163 26.5676 27.7C27.2721 27.1707 27.8656 26.5016 28.3068 25.7338C28.854 24.7814 29.167 23.6772 29.167 22.5C29.167 18.9101 26.2568 16 22.667 16C21.2034 16 19.8528 16.4837 18.7664 17.3C17.5184 18.2376 16.619 19.6139 16.297 21.2C16.2118 21.62 16.167 22.0548 16.167 22.5ZM26.0516 21.3346C26.3055 21.0808 26.3055 20.6692 26.0516 20.4154C25.7978 20.1615 25.3862 20.1615 25.1324 20.4154L22.017 23.5308L20.2016 21.7154C19.9478 21.4615 19.5362 21.4615 19.2824 21.7154C19.0285 21.9692 19.0285 22.3808 19.2824 22.6346L21.5574 24.9096C21.8112 25.1635 22.2228 25.1635 22.4766 24.9096L26.0516 21.3346Z" fill="#CF67B3"/>
</svg>
