<svg width="33" height="32" viewBox="0 0 33 32" fill="none" xmlns="http://www.w3.org/2000/svg">
<path fill-rule="evenodd" clip-rule="evenodd" d="M5.88613 2C4.75249 2 3.8335 2.9402 3.8335 4.1V26.5C3.8335 27.6598 4.75249 28.6 5.88613 28.6H16.8715C16.0272 27.6349 15.3978 26.4688 15.0602 25.1806C14.7465 25.5595 14.278 25.8 13.7545 25.8C12.8099 25.8 12.044 25.0165 12.044 24.05C12.044 23.0835 12.8099 22.3 13.7545 22.3C14.1427 22.3 14.5006 22.4323 14.7877 22.6551C14.9645 18.1758 18.5698 14.6 22.9914 14.6C23.2218 14.6 23.45 14.6097 23.6756 14.6288V4.1C23.6756 2.9402 22.7566 2 21.623 2H5.88613ZM6.57034 6.2C6.57034 5.4268 7.183 4.8 7.93876 4.8H19.5703C20.3261 4.8 20.9388 5.4268 20.9388 6.2V7.6C20.9388 8.3732 20.3261 9 19.5703 9H7.93876C7.183 9 6.57034 8.3732 6.57034 7.6V6.2ZM6.57034 12.85C6.57034 11.8835 7.33617 11.1 8.28086 11.1C9.22556 11.1 9.99139 11.8835 9.99139 12.85C9.99139 13.8165 9.22556 14.6 8.28086 14.6C7.33617 14.6 6.57034 13.8165 6.57034 12.85ZM6.57034 24.05C6.57034 23.0835 7.33617 22.3 8.28086 22.3C9.22556 22.3 9.99139 23.0835 9.99139 24.05C9.99139 25.0165 9.22556 25.8 8.28086 25.8C7.33617 25.8 6.57034 25.0165 6.57034 24.05ZM6.57034 18.45C6.57034 17.4835 7.33617 16.7 8.28086 16.7C9.22556 16.7 9.99139 17.4835 9.99139 18.45C9.99139 19.4165 9.22556 20.2 8.28086 20.2C7.33617 20.2 6.57034 19.4165 6.57034 18.45ZM12.044 18.45C12.044 17.4835 12.8099 16.7 13.7545 16.7C14.6992 16.7 15.4651 17.4835 15.4651 18.45C15.4651 19.4165 14.6992 20.2 13.7545 20.2C12.8099 20.2 12.044 19.4165 12.044 18.45ZM12.044 12.85C12.044 11.8835 12.8099 11.1 13.7545 11.1C14.6992 11.1 15.4651 11.8835 15.4651 12.85C15.4651 13.8165 14.6992 14.6 13.7545 14.6C12.8099 14.6 12.044 13.8165 12.044 12.85ZM17.5177 12.85C17.5177 11.8835 18.2835 11.1 19.2282 11.1C20.1729 11.1 20.9388 11.8835 20.9388 12.85C20.9388 13.8165 20.1729 14.6 19.2282 14.6C18.2835 14.6 17.5177 13.8165 17.5177 12.85Z" fill="#5BA0C5"/>
<path d="M19.5703 20.9C19.5703 20.5134 19.8767 20.2 20.2545 20.2C20.6324 20.2 20.9388 20.5134 20.9388 20.9C20.9388 21.2866 20.6324 21.6 20.2545 21.6C19.8767 21.6 19.5703 21.2866 19.5703 20.9Z" fill="#5BA0C5"/>
<path d="M25.044 25.1C25.044 24.7134 25.3504 24.4 25.7282 24.4C26.1061 24.4 26.4124 24.7134 26.4124 25.1C26.4124 25.4866 26.1061 25.8 25.7282 25.8C25.3504 25.8 25.044 25.4866 25.044 25.1Z" fill="#5BA0C5"/>
<path fill-rule="evenodd" clip-rule="evenodd" d="M29.8335 23C29.8335 26.866 26.7702 30 22.9914 30C19.2126 30 16.1493 26.866 16.1493 23C16.1493 19.134 19.2126 16 22.9914 16C26.7702 16 29.8335 19.134 29.8335 23ZM20.2545 23C21.3882 23 22.3072 22.0598 22.3072 20.9C22.3072 19.7402 21.3882 18.8 20.2545 18.8C19.1209 18.8 18.2019 19.7402 18.2019 20.9C18.2019 22.0598 19.1209 23 20.2545 23ZM25.5841 20.6298C25.8161 20.3246 25.7624 19.8848 25.4641 19.6475C25.1658 19.4101 24.736 19.4651 24.504 19.7702L19.7145 26.0702C19.4825 26.3754 19.5362 26.8152 19.8345 27.0525C20.1328 27.2899 20.5627 27.2349 20.7947 26.9298L25.5841 20.6298ZM25.7282 27.2C26.8619 27.2 27.7809 26.2598 27.7809 25.1C27.7809 23.9402 26.8619 23 25.7282 23C24.5946 23 23.6756 23.9402 23.6756 25.1C23.6756 26.2598 24.5946 27.2 25.7282 27.2Z" fill="#5BA0C5"/>
</svg>
