<svg width="40" height="32" viewBox="0 0 40 32" fill="none" xmlns="http://www.w3.org/2000/svg">
<path fill-rule="evenodd" clip-rule="evenodd" d="M7.43934 0.43934C8.02513 -0.146447 8.97487 -0.146447 9.56066 0.43934L13.6213 4.5H32.5C33.3284 4.5 34 5.17157 34 6C34 6.82843 33.3284 7.5 32.5 7.5H30V10.3519C30.0925 10.4053 30.1816 10.4668 30.2665 10.5362L39.5023 18.0928C39.8173 18.3505 40 18.736 40 19.143C40 19.8925 39.3925 20.5 38.643 20.5H19.357C18.6075 20.5 18 19.8925 18 19.143C18 18.736 18.1827 18.3505 18.4977 18.0928L27.7335 10.5362C27.8184 10.4668 27.9075 10.4053 28 10.3519V7.5H14V35.5H15.5C16.3284 35.5 17 36.1716 17 37C17 37.8284 16.3284 38.5 15.5 38.5H1.5C0.671573 38.5 0 37.8284 0 37C0 36.1716 0.671573 35.5 1.5 35.5H3V7.5H1.5C0.671573 7.5 0 6.82843 0 6C0 5.17157 0.671573 4.5 1.5 4.5H3.37868L7.43934 0.43934ZM10.6519 35.5L6 30.3551V35.5H10.6519ZM11 32.903V22.6131L6.34815 27.758L11 32.903ZM11 17.4191V7.12928L6.34815 12.2742L11 17.4191ZM10.0626 5.18393L8.5 3.62132L6 6.12132V9.67714L10.0626 5.18393ZM6 14.8712V25.161L10.6518 20.0161L6 14.8712Z" fill="#D6D8DF"/>
<path fill-rule="evenodd" clip-rule="evenodd" d="M20 35.5V25.5C20 24.3954 20.8954 23.5 22 23.5H36C37.1046 23.5 38 24.3954 38 25.5V35.5C38 36.6046 37.1046 37.5 36 37.5H22C20.8954 37.5 20 36.6046 20 35.5ZM26 28.5C26 27.9477 26.4477 27.5 27 27.5H31C31.5523 27.5 32 27.9477 32 28.5V32.5C32 33.0523 31.5523 33.5 31 33.5H27C26.4477 33.5 26 33.0523 26 32.5V28.5Z" fill="#D6D8DF"/>
</svg>
