<svg width="16" height="16" viewBox="0 0 16 16" fill="none" xmlns="http://www.w3.org/2000/svg">
<path fill-rule="evenodd" clip-rule="evenodd" d="M3.71983 3.71991C3.86045 3.57946 4.05108 3.50057 4.24983 3.50057C4.44858 3.50057 4.6392 3.57946 4.77983 3.71991L7.99983 6.93991L11.2198 3.71991C11.2885 3.64622 11.3713 3.58712 11.4633 3.54613C11.5553 3.50514 11.6546 3.4831 11.7553 3.48132C11.856 3.47954 11.956 3.49807 12.0494 3.53579C12.1428 3.57351 12.2276 3.62965 12.2988 3.70087C12.3701 3.77209 12.4262 3.85693 12.4639 3.95031C12.5016 4.0437 12.5202 4.14373 12.5184 4.24443C12.5166 4.34514 12.4946 4.44445 12.4536 4.53645C12.4126 4.62845 12.3535 4.71125 12.2798 4.77991L9.05983 7.99991L12.2798 11.2199C12.3535 11.2886 12.4126 11.3714 12.4536 11.4634C12.4946 11.5554 12.5166 11.6547 12.5184 11.7554C12.5202 11.8561 12.5016 11.9561 12.4639 12.0495C12.4262 12.1429 12.3701 12.2277 12.2988 12.2989C12.2276 12.3702 12.1428 12.4263 12.0494 12.464C11.956 12.5017 11.856 12.5203 11.7553 12.5185C11.6546 12.5167 11.5553 12.4947 11.4633 12.4537C11.3713 12.4127 11.2885 12.3536 11.2198 12.2799L7.99983 9.05991L4.77983 12.2799C4.63765 12.4124 4.4496 12.4845 4.2553 12.4811C4.061 12.4776 3.87562 12.3989 3.7382 12.2615C3.60079 12.1241 3.52208 11.9387 3.51865 11.7444C3.51522 11.5501 3.58735 11.3621 3.71983 11.2199L6.93983 7.99991L3.71983 4.77991C3.57938 4.63929 3.50049 4.44866 3.50049 4.24991C3.50049 4.05116 3.57938 3.86054 3.71983 3.71991Z" fill="#1F1F1F"/>
</svg>
