<svg width="16" height="16" viewBox="0 0 16 16" fill="none" xmlns="http://www.w3.org/2000/svg">
<path fill-rule="evenodd" clip-rule="evenodd" d="M5.48168 2.04077C4.31505 2.04077 3.29789 2.86714 3.07115 4.01972L3.07115 4.01972L3.07063 4.02238L2.92742 4.76452L2.67272 6.01864C1.68975 6.23895 0.950684 7.12042 0.950684 8.16789V11.4256V12.1756H1.70068H3.31871V13.7805H4.81871V12.1756H11.1685V13.7805H12.6685V12.1756H14.2996H15.0496V11.4256V8.16789C15.0496 7.12092 14.3113 6.2398 13.329 6.01896L12.9292 4.01972L12.9289 4.0185C12.7017 2.86657 11.6849 2.04077 10.5186 2.04077H5.48168ZM11.7886 5.96568H4.2141L4.39813 5.05949L4.39817 5.0595L4.39955 5.05233L4.54316 4.30816C4.63085 3.86517 5.02639 3.54077 5.48168 3.54077H10.5186C10.9743 3.54077 11.3701 3.8657 11.4574 4.30925L11.4578 4.31158L11.7886 5.96568ZM2.45068 8.16789C2.45068 7.78404 2.76904 7.46568 3.1529 7.46568H12.8474C13.2313 7.46568 13.5496 7.78404 13.5496 8.16789V10.6756H2.45068V8.16789ZM4.93252 9.07075C4.93252 9.54174 4.55311 9.93423 4.06904 9.93423C3.59805 9.93423 3.20557 9.55482 3.20557 9.07075C3.20557 8.59976 3.58497 8.20728 4.06904 8.20728C4.54003 8.20728 4.93252 8.59976 4.93252 9.07075ZM12.7821 9.07075C12.7821 9.54174 12.4027 9.93423 11.9186 9.93423C11.4477 9.93423 11.0552 9.55482 11.0552 9.07075C11.0552 8.59976 11.4346 8.20728 11.9186 8.20728C12.3896 8.20728 12.7821 8.59976 12.7821 9.07075Z" fill="#8C94A8"/>
</svg>
