<svg width="17" height="16" viewBox="0 0 17 16" fill="none" xmlns="http://www.w3.org/2000/svg">
<g clip-path="url(#clip0_206_7519)">
<path fill-rule="evenodd" clip-rule="evenodd" d="M4.75 2.5C3.41421 2.5 2 3.66421 2 5.5C2 7.64969 3.58041 9.64375 5.3647 11.1819C6.23533 11.9325 7.10962 12.5358 7.76796 12.952C8.06407 13.1392 8.31492 13.2875 8.5 13.3934C8.68508 13.2875 8.93593 13.1392 9.23204 12.952C9.89039 12.5358 10.7647 11.9325 11.6353 11.1819C13.4196 9.64375 15 7.64969 15 5.5C15 3.66421 13.5858 2.5 12.25 2.5C10.8768 2.5 9.64121 3.48581 9.22114 4.95604C9.12915 5.27802 8.83486 5.5 8.5 5.5C8.16514 5.5 7.87085 5.27802 7.77886 4.95604C7.35879 3.48581 6.12319 2.5 4.75 2.5ZM8.5 14.25C8.15543 14.9162 8.15523 14.9161 8.155 14.9159L8.15269 14.9147L8.14731 14.9119L8.12883 14.9022C8.11313 14.8939 8.09074 14.882 8.0621 14.8665C8.00484 14.8356 7.92254 14.7904 7.8188 14.7317C7.6114 14.6142 7.31771 14.442 6.96642 14.2199C6.26538 13.7767 5.32717 13.13 4.3853 12.3181C2.54459 10.7312 0.5 8.35031 0.5 5.5C0.5 2.83579 2.58579 1 4.75 1C6.29736 1 7.65289 1.80151 8.5 3.01995C9.34711 1.80151 10.7026 1 12.25 1C14.4142 1 16.5 2.83579 16.5 5.5C16.5 8.35031 14.4554 10.7312 12.6147 12.3181C11.6728 13.13 10.7346 13.7767 10.0336 14.2199C9.68229 14.442 9.3886 14.6142 9.1812 14.7317C9.07746 14.7904 8.99517 14.8356 8.9379 14.8665C8.90926 14.882 8.88687 14.8939 8.87117 14.9022L8.85269 14.9119L8.84731 14.9147L8.84501 14.9159C8.84477 14.9161 8.84457 14.9162 8.5 14.25ZM8.5 14.25L8.84501 14.9159C8.62889 15.0277 8.37111 15.0277 8.155 14.9159L8.5 14.25Z" fill="#4F4CD4"/>
</g>
<defs>
<clipPath id="clip0_206_7519">
<rect width="16" height="16" fill="white" transform="translate(0.5)"/>
</clipPath>
</defs>
</svg>
