<svg width="17" height="16" viewBox="0 0 17 16" fill="none" xmlns="http://www.w3.org/2000/svg">
<path fill-rule="evenodd" clip-rule="evenodd" d="M11.3536 1H15.5C15.6381 1 15.75 1.11193 15.75 1.25V5.39645C15.75 5.61917 15.4807 5.73072 15.3232 5.57322L13.7803 4.03033L10.0303 7.78033C9.73744 8.07322 9.26256 8.07322 8.96967 7.78033C8.67678 7.48744 8.67678 7.01256 8.96967 6.71967L12.7197 2.96967L11.1768 1.42678C11.0193 1.26929 11.1308 1 11.3536 1ZM4.5 2C3.5335 2 2.75 2.7835 2.75 3.75V12.25C2.75 13.2165 3.5335 14 4.5 14H13C13.9665 14 14.75 13.2165 14.75 12.25V8.75C14.75 8.33579 14.4142 8 14 8C13.5858 8 13.25 8.33579 13.25 8.75V12.25C13.25 12.3881 13.1381 12.5 13 12.5H4.5C4.36193 12.5 4.25 12.3881 4.25 12.25V3.75C4.25 3.61193 4.36193 3.5 4.5 3.5H8C8.41421 3.5 8.75 3.16421 8.75 2.75C8.75 2.33579 8.41421 2 8 2H4.5Z" fill="#4F4CD4"/>
</svg>
